<?xml version="1.0" encoding="utf-8"?>
<!-- Generator: Adobe Illustrator 15.1.0, SVG Export Plug-In . SVG Version: 6.00 Build 0)  -->
<!DOCTYPE svg PUBLIC "-//W3C//DTD SVG 1.1//EN" "http://www.w3.org/Graphics/SVG/1.1/DTD/svg11.dtd">
<svg version="1.1" id="Layer_1" xmlns="http://www.w3.org/2000/svg" xmlns:xlink="http://www.w3.org/1999/xlink" x="0px" y="0px"
	 width="32px" height="32px" viewBox="0 0 32 32" enable-background="new 0 0 32 32" xml:space="preserve">
<g id="marker_1_">
	<g id="marker">
		<path fill="#EAAA44" stroke="#000000" stroke-miterlimit="10" d="M25.279,9.763c0,7.004-9.28,10.28-9.28,21.836
			c0-11.561-9.279-15.012-9.279-21.836c0-5.125,4.154-9.28,9.279-9.28S25.279,4.638,25.279,9.763z"/>
	</g>
</g>
<g id="icons">
	<g id="building">
		<g>
			<g>
				<path d="M12.948,15.662h2.347v-2.4h1.411v2.4h2.347V4.918h-6.104L12.948,15.662L12.948,15.662z M16.428,6.185h1.411v1.41h-1.411
					V6.185z M16.428,8.451h1.411v1.411h-1.411V8.451z M16.428,10.718h1.411v1.411h-1.411V10.718z M14.161,6.185h1.411v1.41h-1.411
					V6.185z M14.161,8.451h1.411v1.411h-1.411V8.451z M14.161,10.718h1.411v1.411h-1.411V10.718z"/>
			</g>
		</g>
		<rect x="12" y="15.498" width="8" height="0.584"/>
	</g>
</g>
</svg>
