<?xml version="1.0" encoding="utf-8"?>
<!-- Generator: Adobe Illustrator 15.1.0, SVG Export Plug-In . SVG Version: 6.00 Build 0)  -->
<!DOCTYPE svg PUBLIC "-//W3C//DTD SVG 1.1//EN" "http://www.w3.org/Graphics/SVG/1.1/DTD/svg11.dtd">
<svg version="1.1" id="Layer_1" xmlns="http://www.w3.org/2000/svg" xmlns:xlink="http://www.w3.org/1999/xlink" x="0px" y="0px"
	 width="32px" height="32px" viewBox="0 0 32 32" enable-background="new 0 0 32 32" xml:space="preserve">
<g id="marker_1_">
	<g id="marker">
		<path fill="#91D656" stroke="#000000" stroke-miterlimit="10" d="M25.279,9.763c0,7.004-9.28,10.28-9.28,21.836
			c0-11.559-9.279-15.01-9.279-21.836c0-5.125,4.154-9.28,9.279-9.28S25.279,4.638,25.279,9.763z"/>
	</g>
</g>
<g id="icons">
	<g id="Layer_5">
		<g>
			<g>
				<path d="M21.1,11.286l-0.949-0.163v-0.425c0-1.042-0.732-1.825-1.711-1.825h-4.748c-1.008,0-1.821,0.817-1.821,1.825v0.431
					l-0.966,0.159c-0.119,0.02-0.213,0.123-0.213,0.244v0.243c0,0.137,0.117,0.245,0.253,0.245h0.264
					c-0.064,0.11-0.102,0.232-0.102,0.365v2.067c0,0.324,0.219,0.597,0.524,0.672v1.319c0,0.137,0.111,0.252,0.248,0.252h1.139
					c0.137,0,0.252-0.115,0.252-0.253v-1.299h5.593v1.299c0,0.138,0.115,0.253,0.252,0.253h1.139c0.139,0,0.248-0.115,0.248-0.253
					v-1.348c0.262-0.102,0.438-0.352,0.438-0.644v-2.067c0-0.133-0.037-0.255-0.103-0.365h0.22c0.137,0,0.254-0.107,0.254-0.245
					v-0.244C21.309,11.409,21.219,11.306,21.1,11.286z M12.789,10.697c0-0.493,0.41-0.886,0.903-0.886h1.394
					c-0.002,0-0.003,0.011-0.003,0.02v0.411c0,0.078,0.063,0.137,0.141,0.137h1.45c0.077,0,0.135-0.059,0.135-0.137v-0.41
					c0-0.009,0.006-0.02,0.004-0.02h1.629c0.533,0,0.771,0.455,0.771,0.886v0.729H12.79L12.789,10.697L12.789,10.697z
					 M13.254,13.988c-0.274,0-0.496-0.222-0.496-0.496c0-0.273,0.222-0.496,0.496-0.496s0.496,0.222,0.496,0.496
					C13.75,13.766,13.528,13.988,13.254,13.988z M17.443,13.962H14.61c-0.258,0-0.467-0.212-0.467-0.47
					c0-0.258,0.209-0.47,0.467-0.47h2.833c0.257,0,0.467,0.212,0.467,0.47C17.91,13.75,17.7,13.962,17.443,13.962z M18.303,13.492
					c0-0.274,0.223-0.496,0.496-0.496s0.495,0.222,0.495,0.496c0,0.273-0.222,0.496-0.495,0.496S18.303,13.766,18.303,13.492z"/>
				<path d="M18.837,4.307c-0.713,0-1.333,0.413-1.649,1.004h-0.441c-0.051,0-0.098-0.004-0.137,0.022L16.091,5.66
					c-0.063,0.042-0.146,0.037-0.209-0.004l-0.48-0.312c-0.062-0.041-0.144-0.042-0.207-0.003L14.69,5.652
					c-0.066,0.041-0.15,0.042-0.217,0.001l-0.516-0.31c-0.07-0.042-0.156-0.041-0.225,0.001L13.39,5.555
					c-0.058,0.035-0.131,0.034-0.187-0.004l-0.36-0.223c-0.035-0.023-0.076-0.019-0.119-0.019h-0.512
					c-0.509,0-0.921,0.371-0.921,0.88c0,0.47,0.381,0.809,0.85,0.809h5.046c0.313,0.591,0.938,1.01,1.647,1.01
					c1.033,0,1.872-0.817,1.872-1.851C20.709,5.125,19.871,4.307,18.837,4.307z M19.346,6.767c-0.336,0-0.604-0.271-0.604-0.605
					s0.271-0.605,0.604-0.605c0.334,0,0.604,0.271,0.604,0.605S19.68,6.767,19.346,6.767z"/>
			</g>
		</g>
	</g>
</g>
<g id="Layer_3">
</g>
</svg>
