<?xml version="1.0" encoding="utf-8"?>
<!-- Generator: Adobe Illustrator 15.1.0, SVG Export Plug-In . SVG Version: 6.00 Build 0)  -->
<!DOCTYPE svg PUBLIC "-//W3C//DTD SVG 1.1//EN" "http://www.w3.org/Graphics/SVG/1.1/DTD/svg11.dtd">
<svg version="1.1" id="Layer_1" xmlns="http://www.w3.org/2000/svg" xmlns:xlink="http://www.w3.org/1999/xlink" x="0px" y="0px"
	 width="32px" height="32px" viewBox="0 0 32 32" enable-background="new 0 0 32 32" xml:space="preserve">
<g id="marker_1_">
	<g id="marker">
		<path fill="#B793E5" stroke="#000000" stroke-miterlimit="10" d="M25.279,9.763c0,7.004-9.28,10.28-9.28,21.836
			c0-11.561-9.279-15.012-9.279-21.836c0-5.125,4.154-9.28,9.279-9.28S25.279,4.638,25.279,9.763z"/>
	</g>
</g>
<g id="icons">
	<g id="Layer_4">
		<g>
			<rect x="15.805" y="5.162" width="0.816" height="1.297"/>
			<path d="M15.151,7h2.123c0.559,0,1.021,0.403,1.107,0.932c-0.011,0-0.021,0-0.031,0h-4.271c-0.011,0-0.021,0-0.032,0
				C14.134,7.404,14.597,7,15.151,7z"/>
		</g>
		<polygon points="11.95,4.817 11.449,4.687 11.449,7.313 11.95,7.118 		"/>
		<polygon points="12.95,5.078 12.45,4.948 12.45,6.923 12.95,6.729 		"/>
		<g>
			<polygon points="14.45,6.144 15.486,5.741 14.45,5.47 			"/>
			<polygon points="13.95,5.339 13.45,5.209 13.45,6.534 13.95,6.339 			"/>
		</g>
		<path d="M18.508,8.352c-0.051-0.023-0.104-0.035-0.158-0.035h-4.271c-0.054,0-0.107,0.012-0.159,0.035
			c-0.137,0.062-0.226,0.2-0.226,0.349v7.422c0,0.212,0.172,0.385,0.385,0.385h4.271c0.213,0,0.385-0.173,0.385-0.385V8.701
			C18.734,8.551,18.646,8.414,18.508,8.352z M14.172,13.604v-3.083c0.958,0,1.12,0.563,1.12,1.521S15.129,13.604,14.172,13.604z"/>
	</g>
</g>
</svg>
