<?xml version="1.0" encoding="utf-8"?>
<!-- Generator: Adobe Illustrator 15.1.0, SVG Export Plug-In . SVG Version: 6.00 Build 0)  -->
<!DOCTYPE svg PUBLIC "-//W3C//DTD SVG 1.1//EN" "http://www.w3.org/Graphics/SVG/1.1/DTD/svg11.dtd">
<svg version="1.1" id="Capa_1" xmlns="http://www.w3.org/2000/svg" xmlns:xlink="http://www.w3.org/1999/xlink" x="0px" y="0px"
	 width="864px" height="1080px" viewBox="0 0 864 1080" enable-background="new 0 0 864 1080" xml:space="preserve">
<g id="Settings">
	<g>
		<path fill="#555555" d="M861.283,492.032c-1.366-12.146-15.526-21.272-27.771-21.272c-39.589,0-74.72-23.245-89.452-59.195
			c-15.052-36.821-5.347-79.763,24.158-106.828c9.287-8.49,10.416-22.703,2.626-32.575c-20.262-25.73-43.292-48.973-68.438-69.116
			c-9.847-7.902-24.293-6.802-32.832,2.652c-25.749,28.518-72.003,39.116-107.743,24.203
			c-37.194-15.646-60.649-53.335-58.354-93.792c0.755-12.708-8.532-23.757-21.201-25.232c-32.27-3.732-64.821-3.848-97.187-0.257
			c-12.525,1.382-21.812,12.171-21.391,24.718c1.407,40.059-22.33,77.088-59.154,92.172c-35.313,14.424-81.242,3.916-106.94-24.348
			c-8.493-9.31-22.705-10.454-32.6-2.742c-25.891,20.314-49.439,43.576-69.888,69.094c-7.976,9.92-6.802,24.3,2.578,32.835
			c30.067,27.229,39.775,70.543,24.155,107.789c-14.913,35.51-51.786,58.396-93.998,58.396c-13.698-0.44-23.454,8.754-24.952,21.207
			c-3.8,32.456-3.845,65.525-0.187,98.245c1.356,12.196,15.948,21.242,28.328,21.242c37.619-0.961,73.736,22.33,88.887,59.199
			c15.103,36.821,5.395,79.737-24.155,106.824c-9.242,8.49-10.416,22.68-2.626,32.553c20.073,25.566,43.106,48.831,68.341,69.142
			c9.898,7.976,24.3,6.851,32.88-2.604c25.847-28.589,72.097-39.168,107.696-24.227c37.287,15.598,60.741,53.284,58.446,93.764
			c-0.749,12.714,8.583,23.782,21.201,25.235c16.508,1.926,33.114,2.887,49.767,2.887c15.807,0,31.616-0.868,47.423-2.626
			c12.528-1.383,21.809-12.171,21.388-24.741c-1.449-40.035,22.329-77.065,59.105-92.123c35.552-14.521,81.287-3.894,106.989,24.342
			c8.541,9.29,22.653,10.412,32.604,2.726c25.843-20.266,49.342-43.508,69.888-69.097c7.972-9.898,6.847-24.3-2.582-32.832
			c-30.067-27.229-39.823-70.55-24.203-107.77c14.685-35.037,50.188-58.562,88.375-58.562l5.343,0.139
			c12.387,1.006,23.783-8.535,25.284-21.179C864.896,557.792,864.941,524.751,861.283,492.032z M432.684,685.011
			c-79.462,0-144.096-64.635-144.096-144.097c0-79.457,64.634-144.096,144.096-144.096c79.457,0,144.092,64.639,144.092,144.096
			C576.775,620.376,512.141,685.011,432.684,685.011z"/>
	</g>
</g>
</svg>
